<mxfile host="65bd71144e">
    <diagram id="53lUenhzwozdALyd10WN" name="Page-1">
        <mxGraphModel dx="1127" dy="1236" grid="1" gridSize="10" guides="1" tooltips="1" connect="1" arrows="1" fold="1" page="1" pageScale="1" pageWidth="1100" pageHeight="850" background="#ffffff" math="0" shadow="0">
            <root>
                <mxCell id="0"/>
                <mxCell id="1" parent="0"/>
                <mxCell id="21" style="edgeStyle=none;html=1;exitX=0.75;exitY=1;exitDx=0;exitDy=0;entryX=0.75;entryY=0;entryDx=0;entryDy=0;fontSize=14;" parent="1" source="5" target="6" edge="1">
                    <mxGeometry relative="1" as="geometry"/>
                </mxCell>
                <mxCell id="31" style="edgeStyle=none;html=1;exitX=1;exitY=0.5;exitDx=0;exitDy=0;entryX=0;entryY=0.5;entryDx=0;entryDy=0;fontSize=14;" parent="1" source="5" target="59" edge="1">
                    <mxGeometry relative="1" as="geometry">
                        <mxPoint x="680.4200000000001" y="400.32000000000016" as="targetPoint"/>
                    </mxGeometry>
                </mxCell>
                <mxCell id="61" value="login" style="edgeLabel;html=1;align=center;verticalAlign=middle;resizable=0;points=[];fontSize=14;" parent="31" vertex="1" connectable="0">
                    <mxGeometry x="-0.0123" relative="1" as="geometry">
                        <mxPoint as="offset"/>
                    </mxGeometry>
                </mxCell>
                <mxCell id="5" value="/vendor/sign-in" style="rounded=0;whiteSpace=wrap;html=1;fontSize=14;" parent="1" vertex="1">
                    <mxGeometry x="380" y="310" width="210" height="80" as="geometry"/>
                </mxCell>
                <mxCell id="20" style="edgeStyle=none;html=1;exitX=0.25;exitY=0;exitDx=0;exitDy=0;entryX=0.25;entryY=1;entryDx=0;entryDy=0;fontSize=14;" parent="1" source="6" target="5" edge="1">
                    <mxGeometry relative="1" as="geometry"/>
                </mxCell>
                <mxCell id="78" style="edgeStyle=none;html=1;exitX=0.75;exitY=1;exitDx=0;exitDy=0;entryX=0;entryY=0.5;entryDx=0;entryDy=0;fontSize=14;" parent="1" source="6" target="77" edge="1">
                    <mxGeometry relative="1" as="geometry">
                        <Array as="points">
                            <mxPoint x="538" y="600"/>
                        </Array>
                    </mxGeometry>
                </mxCell>
                <mxCell id="82" value="send&lt;br&gt;verification&lt;br&gt;email" style="edgeLabel;html=1;align=center;verticalAlign=middle;resizable=0;points=[];fontSize=14;" parent="78" vertex="1" connectable="0">
                    <mxGeometry x="-0.515" y="3" relative="1" as="geometry">
                        <mxPoint y="10" as="offset"/>
                    </mxGeometry>
                </mxCell>
                <mxCell id="6" value="/vendor/sign-up" style="rounded=0;whiteSpace=wrap;html=1;fontSize=14;" parent="1" vertex="1">
                    <mxGeometry x="380" y="425" width="210" height="80" as="geometry"/>
                </mxCell>
                <mxCell id="23" style="edgeStyle=none;html=1;exitX=0.75;exitY=1;exitDx=0;exitDy=0;entryX=0.75;entryY=0;entryDx=0;entryDy=0;fontSize=14;" parent="1" source="7" target="8" edge="1">
                    <mxGeometry relative="1" as="geometry"/>
                </mxCell>
                <mxCell id="34" style="edgeStyle=none;html=1;exitX=1;exitY=0.5;exitDx=0;exitDy=0;entryX=0;entryY=0.5;entryDx=0;entryDy=0;fontSize=14;" parent="1" source="7" target="33" edge="1">
                    <mxGeometry relative="1" as="geometry"/>
                </mxCell>
                <mxCell id="94" value="login" style="edgeLabel;html=1;align=center;verticalAlign=middle;resizable=0;points=[];fontSize=14;" parent="34" vertex="1" connectable="0">
                    <mxGeometry x="0.0606" y="-1" relative="1" as="geometry">
                        <mxPoint as="offset"/>
                    </mxGeometry>
                </mxCell>
                <mxCell id="7" value="shop/sign-in" style="rounded=0;whiteSpace=wrap;html=1;fontSize=14;" parent="1" vertex="1">
                    <mxGeometry x="380" y="840" width="210" height="80" as="geometry"/>
                </mxCell>
                <mxCell id="22" style="edgeStyle=none;html=1;exitX=0.25;exitY=0;exitDx=0;exitDy=0;entryX=0.25;entryY=1;entryDx=0;entryDy=0;fontSize=14;" parent="1" source="8" target="7" edge="1">
                    <mxGeometry relative="1" as="geometry"/>
                </mxCell>
                <mxCell id="92" style="edgeStyle=none;html=1;exitX=0.75;exitY=1;exitDx=0;exitDy=0;entryX=0;entryY=0.5;entryDx=0;entryDy=0;fontSize=14;" parent="1" source="8" target="89" edge="1">
                    <mxGeometry relative="1" as="geometry">
                        <Array as="points">
                            <mxPoint x="538" y="1170"/>
                        </Array>
                    </mxGeometry>
                </mxCell>
                <mxCell id="8" value="shop/sign-up" style="rounded=0;whiteSpace=wrap;html=1;fontSize=14;" parent="1" vertex="1">
                    <mxGeometry x="380" y="960" width="210" height="80" as="geometry"/>
                </mxCell>
                <mxCell id="12" style="edgeStyle=none;html=1;exitX=1;exitY=0.5;exitDx=0;exitDy=0;entryX=0;entryY=0.5;entryDx=0;entryDy=0;fontSize=14;" parent="1" source="9" target="5" edge="1">
                    <mxGeometry relative="1" as="geometry">
                        <Array as="points">
                            <mxPoint x="320" y="350"/>
                        </Array>
                    </mxGeometry>
                </mxCell>
                <mxCell id="25" value="store login" style="edgeLabel;html=1;align=center;verticalAlign=middle;resizable=0;points=[];fontSize=14;" parent="12" vertex="1" connectable="0">
                    <mxGeometry x="-0.0508" y="-2" relative="1" as="geometry">
                        <mxPoint as="offset"/>
                    </mxGeometry>
                </mxCell>
                <mxCell id="13" style="edgeStyle=none;html=1;exitX=1;exitY=0.5;exitDx=0;exitDy=0;entryX=0;entryY=0.5;entryDx=0;entryDy=0;fontSize=14;" parent="1" source="9" target="6" edge="1">
                    <mxGeometry relative="1" as="geometry">
                        <Array as="points">
                            <mxPoint x="320" y="465"/>
                        </Array>
                    </mxGeometry>
                </mxCell>
                <mxCell id="14" style="edgeStyle=none;html=1;exitX=1;exitY=1;exitDx=0;exitDy=0;entryX=0;entryY=0.5;entryDx=0;entryDy=0;fontSize=14;" parent="1" source="9" target="7" edge="1">
                    <mxGeometry relative="1" as="geometry">
                        <Array as="points">
                            <mxPoint x="290" y="880"/>
                        </Array>
                    </mxGeometry>
                </mxCell>
                <mxCell id="26" value="user login" style="edgeLabel;html=1;align=center;verticalAlign=middle;resizable=0;points=[];fontSize=14;" parent="14" vertex="1" connectable="0">
                    <mxGeometry x="0.1925" y="-1" relative="1" as="geometry">
                        <mxPoint x="18" y="-14" as="offset"/>
                    </mxGeometry>
                </mxCell>
                <mxCell id="15" style="edgeStyle=none;html=1;exitX=1;exitY=1;exitDx=0;exitDy=0;entryX=0;entryY=0.5;entryDx=0;entryDy=0;fontSize=14;" parent="1" source="9" target="8" edge="1">
                    <mxGeometry relative="1" as="geometry">
                        <Array as="points">
                            <mxPoint x="270" y="1000"/>
                        </Array>
                    </mxGeometry>
                </mxCell>
                <mxCell id="9" value="/&lt;br&gt;-------------------&lt;br&gt;Home, 各ログインへ" style="rounded=0;whiteSpace=wrap;html=1;fontSize=14;" parent="1" vertex="1">
                    <mxGeometry x="30" y="460" width="210" height="80" as="geometry"/>
                </mxCell>
                <mxCell id="72" style="edgeStyle=none;html=1;exitX=1;exitY=0.5;exitDx=0;exitDy=0;entryX=0;entryY=0.5;entryDx=0;entryDy=0;fontSize=14;" parent="1" source="33" target="71" edge="1">
                    <mxGeometry relative="1" as="geometry"/>
                </mxCell>
                <mxCell id="96" style="edgeStyle=none;html=1;exitX=0.5;exitY=1;exitDx=0;exitDy=0;entryX=0;entryY=0.5;entryDx=0;entryDy=0;fontSize=14;" parent="1" source="33" target="95" edge="1">
                    <mxGeometry relative="1" as="geometry">
                        <Array as="points">
                            <mxPoint x="805" y="1020"/>
                        </Array>
                    </mxGeometry>
                </mxCell>
                <mxCell id="33" value="/shop/" style="rounded=0;whiteSpace=wrap;html=1;fontSize=14;" parent="1" vertex="1">
                    <mxGeometry x="700" y="840" width="210" height="80" as="geometry"/>
                </mxCell>
                <mxCell id="40" style="edgeStyle=none;html=1;entryX=1;entryY=0.25;entryDx=0;entryDy=0;fontSize=14;" parent="1" target="37" edge="1">
                    <mxGeometry relative="1" as="geometry">
                        <mxPoint x="860" y="50" as="sourcePoint"/>
                    </mxGeometry>
                </mxCell>
                <mxCell id="42" value="redirect&lt;br&gt;if not signed-in" style="edgeLabel;html=1;align=center;verticalAlign=middle;resizable=0;points=[];fontSize=14;" parent="40" vertex="1" connectable="0">
                    <mxGeometry x="-0.1067" relative="1" as="geometry">
                        <mxPoint x="61" y="-13" as="offset"/>
                    </mxGeometry>
                </mxCell>
                <mxCell id="41" value="login" style="edgeStyle=none;html=1;exitX=1;exitY=0.75;exitDx=0;exitDy=0;entryX=0;entryY=0.5;entryDx=0;entryDy=0;fontSize=14;" parent="1" source="37" target="43" edge="1">
                    <mxGeometry relative="1" as="geometry">
                        <mxPoint x="680" y="120" as="targetPoint"/>
                        <Array as="points">
                            <mxPoint x="680" y="120"/>
                            <mxPoint x="830" y="-160"/>
                        </Array>
                    </mxGeometry>
                </mxCell>
                <mxCell id="37" value="/admin/sign-in" style="rounded=0;whiteSpace=wrap;html=1;fontSize=14;" parent="1" vertex="1">
                    <mxGeometry x="380" y="60" width="210" height="80" as="geometry"/>
                </mxCell>
                <mxCell id="38" value="admin account は cmd で作成する&lt;br&gt;Sign Up Pageは不要" style="text;html=1;align=center;verticalAlign=middle;resizable=0;points=[];autosize=1;strokeColor=none;fillColor=none;fontSize=14;" parent="1" vertex="1">
                    <mxGeometry x="150" y="80" width="230" height="40" as="geometry"/>
                </mxCell>
                <mxCell id="55" style="edgeStyle=none;html=1;exitX=0.25;exitY=1;exitDx=0;exitDy=0;entryX=0.25;entryY=0;entryDx=0;entryDy=0;fontSize=14;" parent="1" source="43" target="44" edge="1">
                    <mxGeometry relative="1" as="geometry"/>
                </mxCell>
                <mxCell id="56" style="edgeStyle=none;html=1;exitX=0.25;exitY=1;exitDx=0;exitDy=0;entryX=0;entryY=0.5;entryDx=0;entryDy=0;fontSize=14;" parent="1" source="43" target="45" edge="1">
                    <mxGeometry relative="1" as="geometry">
                        <Array as="points">
                            <mxPoint x="1040" y="-100"/>
                            <mxPoint x="940" y="-100"/>
                            <mxPoint x="940" y="74"/>
                        </Array>
                    </mxGeometry>
                </mxCell>
                <mxCell id="57" style="edgeStyle=none;html=1;exitX=0.25;exitY=1;exitDx=0;exitDy=0;entryX=0;entryY=0.5;entryDx=0;entryDy=0;fontSize=14;" parent="1" source="43" target="46" edge="1">
                    <mxGeometry relative="1" as="geometry">
                        <Array as="points">
                            <mxPoint x="1040" y="-100"/>
                            <mxPoint x="900" y="-100"/>
                            <mxPoint x="900" y="177"/>
                        </Array>
                    </mxGeometry>
                </mxCell>
                <mxCell id="58" value="Side Barで&lt;br&gt;切り替え" style="edgeLabel;html=1;align=center;verticalAlign=middle;resizable=0;points=[];fontSize=14;" parent="57" vertex="1" connectable="0">
                    <mxGeometry x="-0.1673" y="-1" relative="1" as="geometry">
                        <mxPoint x="11" y="9" as="offset"/>
                    </mxGeometry>
                </mxCell>
                <mxCell id="43" value="/admin/dashboard" style="rounded=0;whiteSpace=wrap;html=1;fontSize=14;" parent="1" vertex="1">
                    <mxGeometry x="970" y="-200" width="280" height="80" as="geometry"/>
                </mxCell>
                <mxCell id="44" value="/admin/dashboard/manage-stores" style="rounded=0;whiteSpace=wrap;html=1;fontSize=14;" parent="1" vertex="1">
                    <mxGeometry x="970" y="-70" width="280" height="80" as="geometry"/>
                </mxCell>
                <mxCell id="45" value="/admin/dashboard/manage-notifications" style="rounded=0;whiteSpace=wrap;html=1;fontSize=14;" parent="1" vertex="1">
                    <mxGeometry x="970" y="34" width="280" height="80" as="geometry"/>
                </mxCell>
                <mxCell id="46" value="/admin/dashboard/batch-cntrl" style="rounded=0;whiteSpace=wrap;html=1;fontSize=14;" parent="1" vertex="1">
                    <mxGeometry x="970" y="137" width="280" height="80" as="geometry"/>
                </mxCell>
                <mxCell id="51" value="admin Home" style="text;html=1;align=center;verticalAlign=middle;resizable=0;points=[];autosize=1;strokeColor=none;fillColor=none;fontSize=14;" parent="1" vertex="1">
                    <mxGeometry x="1250" y="-170" width="90" height="20" as="geometry"/>
                </mxCell>
                <mxCell id="52" value="書店管理" style="text;html=1;align=center;verticalAlign=middle;resizable=0;points=[];autosize=1;strokeColor=none;fillColor=none;fontSize=14;" parent="1" vertex="1">
                    <mxGeometry x="1250" y="-40" width="70" height="20" as="geometry"/>
                </mxCell>
                <mxCell id="53" value="お知らせ管理" style="text;html=1;align=center;verticalAlign=middle;resizable=0;points=[];autosize=1;strokeColor=none;fillColor=none;fontSize=14;" parent="1" vertex="1">
                    <mxGeometry x="1250" y="64" width="100" height="20" as="geometry"/>
                </mxCell>
                <mxCell id="54" value="バッチ処理管理" style="text;html=1;align=center;verticalAlign=middle;resizable=0;points=[];autosize=1;strokeColor=none;fillColor=none;fontSize=14;" parent="1" vertex="1">
                    <mxGeometry x="1250" y="167" width="110" height="20" as="geometry"/>
                </mxCell>
                <mxCell id="65" style="edgeStyle=none;html=1;exitX=1;exitY=0.5;exitDx=0;exitDy=0;entryX=0;entryY=0.5;entryDx=0;entryDy=0;fontSize=14;" parent="1" source="59" target="60" edge="1">
                    <mxGeometry relative="1" as="geometry">
                        <Array as="points">
                            <mxPoint x="930" y="330"/>
                        </Array>
                    </mxGeometry>
                </mxCell>
                <mxCell id="66" value="Profileアイコンから" style="edgeLabel;html=1;align=center;verticalAlign=middle;resizable=0;points=[];fontSize=14;" parent="65" vertex="1" connectable="0">
                    <mxGeometry x="-0.0153" y="1" relative="1" as="geometry">
                        <mxPoint x="-34" y="-26" as="offset"/>
                    </mxGeometry>
                </mxCell>
                <mxCell id="69" style="edgeStyle=none;html=1;exitX=1;exitY=0.5;exitDx=0;exitDy=0;entryX=0;entryY=0.5;entryDx=0;entryDy=0;fontSize=14;" parent="1" source="59" target="68" edge="1">
                    <mxGeometry relative="1" as="geometry">
                        <Array as="points">
                            <mxPoint x="930" y="500"/>
                        </Array>
                    </mxGeometry>
                </mxCell>
                <mxCell id="70" value="任意の学校選択" style="edgeLabel;html=1;align=center;verticalAlign=middle;resizable=0;points=[];fontSize=14;" parent="69" vertex="1" connectable="0">
                    <mxGeometry x="0.0848" y="-1" relative="1" as="geometry">
                        <mxPoint as="offset"/>
                    </mxGeometry>
                </mxCell>
                <mxCell id="59" value="/vendor" style="rounded=0;whiteSpace=wrap;html=1;fontSize=14;" parent="1" vertex="1">
                    <mxGeometry x="700" y="360" width="210" height="80" as="geometry"/>
                </mxCell>
                <mxCell id="60" value="/vendor/account" style="rounded=0;whiteSpace=wrap;html=1;fontSize=14;" parent="1" vertex="1">
                    <mxGeometry x="970" y="290" width="210" height="80" as="geometry"/>
                </mxCell>
                <mxCell id="64" value="書店管理画面Home&lt;br&gt;すでに学校一覧テーブルが&lt;br&gt;表示されている" style="text;html=1;align=center;verticalAlign=middle;resizable=0;points=[];autosize=1;strokeColor=none;fillColor=none;fontSize=14;" parent="1" vertex="1">
                    <mxGeometry x="710" y="440" width="180" height="60" as="geometry"/>
                </mxCell>
                <mxCell id="67" value="書店のアカウント情報の管理" style="text;html=1;align=center;verticalAlign=middle;resizable=0;points=[];autosize=1;strokeColor=none;fillColor=none;fontSize=14;" parent="1" vertex="1">
                    <mxGeometry x="1180" y="320" width="200" height="20" as="geometry"/>
                </mxCell>
                <mxCell id="68" value="/vendor/manage-school/{id}" style="rounded=0;whiteSpace=wrap;html=1;fontSize=14;" parent="1" vertex="1">
                    <mxGeometry x="1040" y="460" width="210" height="80" as="geometry"/>
                </mxCell>
                <mxCell id="74" style="edgeStyle=none;html=1;exitX=1;exitY=0.5;exitDx=0;exitDy=0;entryX=0;entryY=0.5;entryDx=0;entryDy=0;fontSize=14;" parent="1" source="71" target="73" edge="1">
                    <mxGeometry relative="1" as="geometry"/>
                </mxCell>
                <mxCell id="99" style="edgeStyle=none;html=1;exitX=0.5;exitY=1;exitDx=0;exitDy=0;entryX=1;entryY=0;entryDx=0;entryDy=0;fontSize=14;" parent="1" source="71" target="95" edge="1">
                    <mxGeometry relative="1" as="geometry"/>
                </mxCell>
                <mxCell id="71" value="/shop/cart" style="rounded=0;whiteSpace=wrap;html=1;fontSize=14;" parent="1" vertex="1">
                    <mxGeometry x="990" y="840" width="210" height="80" as="geometry"/>
                </mxCell>
                <mxCell id="76" style="edgeStyle=none;html=1;exitX=1;exitY=0.5;exitDx=0;exitDy=0;entryX=0;entryY=0.5;entryDx=0;entryDy=0;fontSize=14;" parent="1" source="73" target="75" edge="1">
                    <mxGeometry relative="1" as="geometry"/>
                </mxCell>
                <mxCell id="100" style="edgeStyle=none;html=1;exitX=0.25;exitY=1;exitDx=0;exitDy=0;entryX=1;entryY=0.5;entryDx=0;entryDy=0;fontSize=14;" parent="1" source="73" target="95" edge="1">
                    <mxGeometry relative="1" as="geometry"/>
                </mxCell>
                <mxCell id="73" value="/shop/place-order" style="rounded=0;whiteSpace=wrap;html=1;fontSize=14;" parent="1" vertex="1">
                    <mxGeometry x="1250" y="840" width="210" height="80" as="geometry"/>
                </mxCell>
                <mxCell id="75" value="/shop/place-order-completed" style="rounded=0;whiteSpace=wrap;html=1;fontSize=14;" parent="1" vertex="1">
                    <mxGeometry x="1520" y="840" width="210" height="80" as="geometry"/>
                </mxCell>
                <mxCell id="80" style="edgeStyle=none;html=1;exitX=1;exitY=0.5;exitDx=0;exitDy=0;entryX=0;entryY=0.5;entryDx=0;entryDy=0;fontSize=14;" parent="1" source="77" target="79" edge="1">
                    <mxGeometry relative="1" as="geometry"/>
                </mxCell>
                <mxCell id="83" value="verify" style="edgeLabel;html=1;align=center;verticalAlign=middle;resizable=0;points=[];fontSize=14;" parent="80" vertex="1" connectable="0">
                    <mxGeometry x="-0.1267" relative="1" as="geometry">
                        <mxPoint as="offset"/>
                    </mxGeometry>
                </mxCell>
                <mxCell id="77" value="" style="shape=message;html=1;whiteSpace=wrap;html=1;outlineConnect=0;fontSize=14;" parent="1" vertex="1">
                    <mxGeometry x="630" y="580" width="60" height="40" as="geometry"/>
                </mxCell>
                <mxCell id="85" style="edgeStyle=none;html=1;exitX=0;exitY=0;exitDx=0;exitDy=0;entryX=1;entryY=1;entryDx=0;entryDy=0;fontSize=14;" parent="1" source="79" target="5" edge="1">
                    <mxGeometry relative="1" as="geometry"/>
                </mxCell>
                <mxCell id="79" value="xxxx.firebaseapp.com/..." style="rounded=0;whiteSpace=wrap;html=1;fontSize=14;fillColor=#f5f5f5;fontColor=#333333;strokeColor=#666666;" parent="1" vertex="1">
                    <mxGeometry x="790" y="560" width="210" height="80" as="geometry"/>
                </mxCell>
                <mxCell id="84" value="verify email を含むいくつかのイベントに対して&lt;br&gt;カスタムハンドラーを実装できる&lt;br&gt;これによりCallback先のURLなどを設定できる&lt;br&gt;（Cognitoに似てる）&lt;br&gt;参考リンク： &lt;a href=&quot;data:page/id,53lUenhzwozdALyd10WN&quot;&gt;firebase custom email handler&lt;/a&gt;" style="text;html=1;align=center;verticalAlign=middle;resizable=0;points=[];autosize=1;strokeColor=none;fillColor=none;fontSize=14;" parent="1" vertex="1">
                    <mxGeometry x="690" y="640" width="310" height="90" as="geometry"/>
                </mxCell>
                <mxCell id="87" style="edgeStyle=none;html=1;exitX=1;exitY=0.5;exitDx=0;exitDy=0;entryX=0;entryY=0.5;entryDx=0;entryDy=0;fontSize=14;" parent="1" source="89" target="90" edge="1">
                    <mxGeometry relative="1" as="geometry"/>
                </mxCell>
                <mxCell id="88" value="verify" style="edgeLabel;html=1;align=center;verticalAlign=middle;resizable=0;points=[];fontSize=14;" parent="87" vertex="1" connectable="0">
                    <mxGeometry x="-0.1267" relative="1" as="geometry">
                        <mxPoint as="offset"/>
                    </mxGeometry>
                </mxCell>
                <mxCell id="89" value="" style="shape=message;html=1;whiteSpace=wrap;html=1;outlineConnect=0;fontSize=14;" parent="1" vertex="1">
                    <mxGeometry x="630" y="1150" width="60" height="40" as="geometry"/>
                </mxCell>
                <mxCell id="93" style="edgeStyle=none;html=1;exitX=0;exitY=0;exitDx=0;exitDy=0;entryX=1;entryY=1;entryDx=0;entryDy=0;fontSize=14;" parent="1" source="90" target="7" edge="1">
                    <mxGeometry relative="1" as="geometry"/>
                </mxCell>
                <mxCell id="90" value="xxxx.firebaseapp.com/..." style="rounded=0;whiteSpace=wrap;html=1;fontSize=14;fillColor=#f5f5f5;fontColor=#333333;strokeColor=#666666;" parent="1" vertex="1">
                    <mxGeometry x="790" y="1130" width="210" height="80" as="geometry"/>
                </mxCell>
                <mxCell id="97" style="edgeStyle=none;html=1;exitX=0.25;exitY=0;exitDx=0;exitDy=0;entryX=0.75;entryY=1;entryDx=0;entryDy=0;fontSize=14;" parent="1" source="95" target="33" edge="1">
                    <mxGeometry relative="1" as="geometry">
                        <Array as="points">
                            <mxPoint x="923" y="950"/>
                            <mxPoint x="858" y="950"/>
                        </Array>
                    </mxGeometry>
                </mxCell>
                <mxCell id="98" style="edgeStyle=none;html=1;exitX=0.75;exitY=0;exitDx=0;exitDy=0;entryX=0.25;entryY=1;entryDx=0;entryDy=0;fontSize=14;" parent="1" source="95" target="71" edge="1">
                    <mxGeometry relative="1" as="geometry"/>
                </mxCell>
                <mxCell id="101" style="edgeStyle=none;html=1;exitX=1;exitY=0.75;exitDx=0;exitDy=0;entryX=0.5;entryY=1;entryDx=0;entryDy=0;fontSize=14;" parent="1" source="95" target="73" edge="1">
                    <mxGeometry relative="1" as="geometry"/>
                </mxCell>
                <mxCell id="95" value="/shop/products/{id}" style="rounded=0;whiteSpace=wrap;html=1;fontSize=14;" parent="1" vertex="1">
                    <mxGeometry x="870" y="980" width="210" height="80" as="geometry"/>
                </mxCell>
            </root>
        </mxGraphModel>
    </diagram>
</mxfile>